<svg xmlns="http://www.w3.org/2000/svg" enable-background="new 0 0 1000 1000" viewBox="0 0 1000 1000"><rect width="1000" height="1000" fill="#f4f5f8"/><polyline fill="none" stroke="#e5e5e5" stroke-linecap="round" stroke-linejoin="round" stroke-miterlimit="10" stroke-width="6" points="243.86 634.66 243.86 665.591 181.998 665.591"/><polyline fill="none" stroke="#e5e5e5" stroke-linecap="round" stroke-linejoin="round" stroke-miterlimit="10" stroke-width="6" points="305.722 665.591 243.86 665.591 243.86 634.66"/><rect width="61.862" height="30.931" x="212.929" y="665.591" fill="none" stroke="#e5e5e5" stroke-linecap="round" stroke-linejoin="round" stroke-miterlimit="10" stroke-width="6"/><polyline fill="none" stroke="#e5e5e5" stroke-linecap="round" stroke-linejoin="round" stroke-miterlimit="10" stroke-width="6" points="261.437 727.453 243.86 727.453 243.86 696.522 305.722 696.522"/><polyline fill="none" stroke="#e5e5e5" stroke-linecap="round" stroke-linejoin="round" stroke-miterlimit="10" stroke-width="6" points="181.998 696.522 243.86 696.522 243.86 727.453 193.697 727.453"/><polyline fill="none" stroke="#e5e5e5" stroke-linecap="round" stroke-linejoin="round" stroke-miterlimit="10" stroke-width="6" points="160.911 665.591 212.929 665.591 212.929 696.522 181.998 696.522"/><polyline fill="none" stroke="#e5e5e5" stroke-linecap="round" stroke-linejoin="round" stroke-miterlimit="10" stroke-width="6" points="319.432 696.522 274.791 696.522 274.791 665.591 296.234 665.591"/><polyline fill="none" stroke="#e5e5e5" stroke-linecap="round" stroke-linejoin="round" stroke-miterlimit="10" stroke-width="6" points="817.643 441.418 817.643 472.349 879.505 472.349"/><polyline fill="none" stroke="#e5e5e5" stroke-linecap="round" stroke-linejoin="round" stroke-miterlimit="10" stroke-width="6" points="755.781 472.349 817.643 472.349 817.643 441.418"/><rect width="61.862" height="30.931" x="786.712" y="472.349" fill="none" stroke="#e5e5e5" stroke-linecap="round" stroke-linejoin="round" stroke-miterlimit="10" stroke-width="6" transform="rotate(-180 817.643 487.814)"/><polyline fill="none" stroke="#e5e5e5" stroke-linecap="round" stroke-linejoin="round" stroke-miterlimit="10" stroke-width="6" points="800.066 534.211 817.643 534.211 817.643 503.28 755.781 503.28"/><polyline fill="none" stroke="#e5e5e5" stroke-linecap="round" stroke-linejoin="round" stroke-miterlimit="10" stroke-width="6" points="879.505 503.28 817.643 503.28 817.643 534.211 867.805 534.211"/><polyline fill="none" stroke="#e5e5e5" stroke-linecap="round" stroke-linejoin="round" stroke-miterlimit="10" stroke-width="6" points="900.592 472.349 848.574 472.349 848.574 503.28 879.505 503.28"/><polyline fill="none" stroke="#e5e5e5" stroke-linecap="round" stroke-linejoin="round" stroke-miterlimit="10" stroke-width="6" points="742.07 503.28 786.712 503.28 786.712 472.349 765.268 472.349"/><g><circle cx="587.034" cy="251.851" r="56.006" fill="none" stroke="#e5e5e5" stroke-linecap="round" stroke-linejoin="round" stroke-miterlimit="10" stroke-width="6"/><line x1="587.034" x2="587.034" y1="201.561" y2="207.032" fill="none" stroke="#e5e5e5" stroke-linecap="round" stroke-linejoin="round" stroke-miterlimit="10" stroke-width="6"/><line x1="587.034" x2="587.034" y1="296.67" y2="302.14" fill="none" stroke="#e5e5e5" stroke-linecap="round" stroke-linejoin="round" stroke-miterlimit="10" stroke-width="6"/><line x1="637.323" x2="631.853" y1="251.851" y2="251.851" fill="none" stroke="#e5e5e5" stroke-linecap="round" stroke-linejoin="round" stroke-miterlimit="10" stroke-width="6"/><line x1="542.215" x2="536.744" y1="251.851" y2="251.851" fill="none" stroke="#e5e5e5" stroke-linecap="round" stroke-linejoin="round" stroke-miterlimit="10" stroke-width="6"/><circle cx="587.034" cy="251.851" r="4.523" fill="#e5e5e5"/><line x1="587.034" x2="611.185" y1="251.851" y2="221.962" fill="none" stroke="#e5e5e5" stroke-linecap="round" stroke-linejoin="round" stroke-miterlimit="10" stroke-width="4"/><line x1="571.795" x2="587.034" y1="236.906" y2="251.851" fill="none" stroke="#e5e5e5" stroke-linecap="round" stroke-linejoin="round" stroke-miterlimit="10" stroke-width="6"/></g><g><rect width="123.302" height="125.311" x="135.838" y="252.95" fill="none" stroke="#e5e5e5" stroke-linecap="round" stroke-linejoin="round" stroke-miterlimit="10" stroke-width="8"/><rect width="86.469" height="88.86" x="154.255" y="271.175" fill="none" stroke="#e5e5e5" stroke-linecap="round" stroke-linejoin="round" stroke-miterlimit="10" stroke-width="4" transform="rotate(90 197.49 315.605)"/><rect width="108.626" height="77.757" x="289.227" y="212.972" fill="none" stroke="#e5e5e5" stroke-linecap="round" stroke-linejoin="round" stroke-miterlimit="10" stroke-width="8"/><rect width="45.856" height="76.725" x="320.612" y="213.488" fill="none" stroke="#e5e5e5" stroke-linecap="round" stroke-linejoin="round" stroke-miterlimit="10" stroke-width="4" transform="rotate(90 343.54 251.85)"/><rect width="72.635" height="47.673" x="292.697" y="352.597" fill="none" stroke="#e5e5e5" stroke-linecap="round" stroke-linejoin="round" stroke-miterlimit="10" stroke-width="4" transform="rotate(90 329.014 376.433)"/><rect width="79.575" height="104.536" x="289.227" y="324.166" fill="none" stroke="#e5e5e5" stroke-linecap="round" stroke-linejoin="round" stroke-miterlimit="10" stroke-width="8"/></g><line x1="833.833" x2="841.75" y1="784.156" y2="784.169" fill="none" stroke="#a83727" stroke-linecap="round" stroke-linejoin="round" stroke-miterlimit="10" stroke-width="6"/><line x1="802.333" x2="820.833" y1="784.221" y2="784.221" fill="none" stroke="#a83727" stroke-linecap="round" stroke-linejoin="round" stroke-miterlimit="10" stroke-width="6"/><line x1="473" x2="788.333" y1="784.221" y2="784.221" fill="none" stroke="#a83727" stroke-linecap="round" stroke-linejoin="round" stroke-miterlimit="10" stroke-width="6"/><line x1="200" x2="452" y1="784.221" y2="784.221" fill="none" stroke="#a83727" stroke-linecap="round" stroke-linejoin="round" stroke-miterlimit="10" stroke-width="6"/><line x1="156.5" x2="178.5" y1="784.221" y2="784.221" fill="none" stroke="#a83727" stroke-linecap="round" stroke-linejoin="round" stroke-miterlimit="10" stroke-width="6"/><line x1="126.5" x2="138.5" y1="784.221" y2="784.221" fill="none" stroke="#a83727" stroke-linecap="round" stroke-linejoin="round" stroke-miterlimit="10" stroke-width="6"/><g><path fill="#6dcca3" d="M330.899,674.41c-18.226-11.597-50.343-32.032-64.218-74.435
		c-9.675-29.567-9.915-66.84,0.523-70.338c12.062-4.041,33.152,38.776,40.916,35.106c6.091-2.879-6.607-29.368-8.333-74.333
		c-1.176-30.636,3.236-56.933,17-80.333c6.32-10.745,10.931-18.583,16-18c20.905,2.403,14.971,144.005,37.333,146.667
		c10.509,1.251,18.928-29.177,30.667-26.667c9.98,2.135,16.691,26.844,18.47,42.808c0.088,0.789,0.152,1.418,0.197,1.858
		c5.241,51.897-25.052,89.304-35.333,102c-15.256,18.839-25.639,22.554-33.554,22.667
		C342.221,681.529,335.845,677.556,330.899,674.41z"/><path fill="none" stroke="#465172" stroke-linecap="round" stroke-linejoin="round" stroke-miterlimit="10" stroke-width="6" d="
		M325.5,477c3.514,37,24.486,93.253,27.612,141c2.036,31.091,0.144,58.531-3,81"/><path fill="#2359b2" d="M422.01,784.221H267.002l0,0c-15.582-27.601-14.992-61.476,1.543-88.518
		l22.799-37.286h106.326l22.149,34.519c16.391,25.544,18.348,57.766,5.17,85.106L422.01,784.221z"/><path fill="none" stroke="#465172" stroke-linecap="round" stroke-linejoin="round" stroke-miterlimit="10" stroke-width="6" d="M375.022 561.879c0 0-.404 17.005-23.783 39.121M301.112 601c0 0 15.691 32 52.846 32"/><path fill="none" stroke="#1e2a54" stroke-linecap="round" stroke-linejoin="round" stroke-miterlimit="10" stroke-width="6" d="
		M382.324,684.799c0,0,23.577,15.359,23.577,52.28" opacity=".67"/></g><g><path fill="#d6d6d6" d="M523.593,794.04c0,29.249,49.86,52.96,111.365,52.96
		c48.154,0,89.17-14.534,104.708-34.882l-116.47,8.401L523.593,794.04z"/><path fill="#f78a21" d="M723.662,791.053c-2.929-0.613-5.962-0.331-8.746,0.767
		c-17.59,6.941-48.385,11.543-83.44,11.543c-54.676,0-99-11.193-99-25c0-12.216,34.697-22.383,80.559-24.565l3.154-16.718
		c-62.905,3.907-110.714,23.366-110.714,46.784c0,26.234,59.994,47.5,134,47.5c32.41,0,62.131-4.079,85.302-10.868
		C739.958,816.047,739.145,794.294,723.662,791.053L723.662,791.053z"/><path fill="#9b463d" d="M671.141,801.275l47.994-10.468c0,0,12.576,1.345,14.899,8.008
		c3.983,11.422-4.18,18.372-4.18,18.372S726.667,790.807,671.141,801.275z" opacity=".26"/><path fill="none" stroke="#a83727" stroke-linecap="round" stroke-linejoin="round" stroke-miterlimit="10" stroke-width="6" d="
		M723.662,791.053c-2.929-0.613-5.962-0.331-8.746,0.767c-17.59,6.941-48.385,11.543-83.44,11.543c-54.676,0-99-11.193-99-25
		c0-12.216,34.697-22.383,80.559-24.565l3.154-16.718c-62.905,3.907-110.714,23.366-110.714,46.784c0,26.234,59.994,47.5,134,47.5
		c32.41,0,62.131-4.079,85.302-10.868C739.958,816.047,739.145,794.294,723.662,791.053L723.662,791.053z"/><path fill="#f78a21" d="M714.301,439.872c-16.036-5.119-33.69-7.956-52.231-7.956
		c-18.394,0-35.916,2.789-51.851,7.832c-9.651-22.737-22.863-41.212-36.842-52.724c-2.196-1.808-5.491-1.153-6.868,1.335
		c-27.714,50.066-40.134,107.362-34.862,169.87c4.825,69.769,31.701,146.546,57.209,225.771h146.843
		c25.594-79.238,52.183-155.102,57.164-223.986c5.462-62.905-7.089-120.413-35.615-171.013c-1.401-2.485-4.715-3.111-6.894-1.27
		C736.662,399.306,723.763,417.536,714.301,439.872z"/><path fill="#9b463d" d="M674.446 533.937c0 3.717-5.541 6.729-12.375 6.729-6.835 0-12.376-3.013-12.376-6.729l12.545-2.812L674.446 533.937zM713.321 782.594c0 0 .01-7.862 1.5-14.5 13.167-58.667 4.522-76.75 4.522-76.75l-27.833 91.471L713.321 782.594zM608.819 782.594c0 0-.01-7.862-1.5-14.5-13.167-58.667-4.522-76.75-4.522-76.75l27.833 91.471L608.819 782.594z" opacity=".26"/><path fill="none" stroke="#a83727" stroke-linecap="round" stroke-linejoin="round" stroke-miterlimit="10" stroke-width="6" d="
		M714.301,439.872c-16.036-5.119-33.69-7.956-52.231-7.956c-18.394,0-35.916,2.789-51.851,7.832
		c-9.651-22.737-22.863-41.212-36.842-52.724c-2.196-1.808-5.491-1.153-6.868,1.335c-27.714,50.066-40.134,107.362-34.862,169.87
		c4.825,69.769,31.701,146.546,57.209,225.771h146.843c25.594-79.238,52.183-155.102,57.164-223.986
		c5.462-62.905-7.089-120.413-35.615-171.013c-1.401-2.485-4.715-3.111-6.894-1.27C736.662,399.306,723.763,417.536,714.301,439.872
		z"/><circle cx="620.603" cy="479.815" r="8" fill="#a83727"/><circle cx="703.603" cy="479.815" r="8" fill="#a83727"/><path fill="#a83727" d="M668.771,506.725c-4.396-0.435-8.84-0.435-13.235,0
		c-2.056,0.204-2.817,2.31-1.2,3.367c1.379,0.901,2.764,1.846,4.151,2.833c2.014,1.434,5.318,1.434,7.333,0
		c1.387-0.987,2.772-1.932,4.151-2.833C671.588,509.035,670.827,506.928,668.771,506.725z"/><path fill="#f78a21" d="M719.135,694.221c-1.698,29.521-15.369,60.479-24.833,90
			c-9.744,0-32.232,0-32.232,0l0.223-83.087"/><path fill="#f78a21" d="M605.006,694.221c1.698,29.521,18.369,60.479,27.833,90c9.744,0,29.232,0,29.232,0
			l-0.223-83.087"/><path fill="none" stroke="#a83727" stroke-linecap="round" stroke-linejoin="round" stroke-miterlimit="10" stroke-width="6" d="M680.487 532.998c-1.822.99-3.959 1.56-6.243 1.56-6.675 0-12.086-4.865-12.086-10.866M643.74 532.998c1.822.99 3.959 1.56 6.243 1.56 6.675 0 12.086-4.865 12.086-10.866M719.135 694.221c-1.698 29.521-18.369 60.479-27.833 90-9.744 0-29.232 0-29.232 0l.223-83.087"/><path fill="none" stroke="#a83727" stroke-linecap="round" stroke-linejoin="round" stroke-miterlimit="10" stroke-width="6" d="
			M605.006,694.221c1.698,29.521,15.369,60.479,24.833,90c9.744,0,32.232,0,32.232,0l-0.223-83.087"/><path fill="#9b463d" d="M729.07 451.389c7.429-22.698 18.159-28.476 18.159-28.476s7.841 2.889 7.841 33.841M595.07 451.389c-7.429-22.698-18.159-28.476-18.159-28.476s-7.841 2.889-7.841 33.841" opacity=".26"/><line x1="644.267" x2="646.767" y1="772.25" y2="783.5" fill="none" stroke="#a83727" stroke-linecap="round" stroke-linejoin="round" stroke-miterlimit="10" stroke-width="6"/><line x1="679.873" x2="677.373" y1="772.25" y2="783.5" fill="none" stroke="#a83727" stroke-linecap="round" stroke-linejoin="round" stroke-miterlimit="10" stroke-width="6"/><g opacity=".24"><path fill="none" stroke="#a83727" stroke-linecap="round" stroke-linejoin="round" stroke-miterlimit="10" stroke-width="2" d="M706.967 528.65c12.085 3.169 24.556 3.836 36.641 2M703.57 536.255c11.015 7.038 22.382 11.795 33.397 14.271M706.967 517.859c9.895-.662 20.105-3.374 30-8.134M617.173 528.65c-12.085 3.169-24.556 3.836-36.641 2M620.57 536.255c-11.015 7.038-22.382 11.795-33.397 14.271M617.173 517.859c-9.895-.662-20.105-3.374-30-8.134"/></g></g></svg>