<?xml version="1.0" ?><svg viewBox="0 0 512 512" xmlns="http://www.w3.org/2000/svg"><g id="Grow_Sprout"><path d="M150.1656,247.9a18.6423,18.6423,0,0,0,13.2207,5.4883,19.0152,19.0152,0,0,0,2.0073-.1074,18.65,18.65,0,0,0,13.7544-8.462l17.8346-27.6035,69.9735-8.7148,15.2705,9.6377a4.5,4.5,0,0,0,6.9014-3.8057V173.8989a4.5,4.5,0,0,0-6.9014-3.8056L266.9561,179.73l-42.3468-5.2741,13.4137-20.7611a4.5,4.5,0,0,0-.5976-5.624l-56.377-56.3779-.0058-.0049L159.77,70.4146a33.0509,33.0509,0,0,0-46.7417,0l-9.0708,9.07a33.0892,33.0892,0,0,0,0,46.7412l6.7086,6.7086L84.3,149.9692a18.7351,18.7351,0,0,0-3.0811,28.9834l68.9463,68.9463Zm117.2759-59.04a4.526,4.526,0,0,0,2.957-.66l9.7295-6.14v24.1113l-9.7295-6.1406a4.5147,4.5147,0,0,0-2.957-.66l-64.0864,7.9817L219.186,182.85Zm-88.204,39.2354-77.8709-78.4376,75.8884-49.03,51.2358,51.2364ZM110.3214,119.8628a24.08,24.08,0,0,1,0-34.0147l9.0708-9.07a24.052,24.052,0,0,1,34.0131,0l17.34,17.34-52.3477,33.821Z"/><path d="M310.7335,216.813a90.1849,90.1849,0,0,1,18.6357,7.0342,4.5,4.5,0,1,0,4.0313-8.0469,97.2423,97.2423,0,0,0-20.7442-7.7793,4.5,4.5,0,0,0-1.9228,8.792Z"/><path d="M359.67,249.0366a4.5,4.5,0,1,0,7.3574-5.1836,82.1343,82.1343,0,0,0-15.1465-16.1611,4.5,4.5,0,1,0-5.7031,6.9629A73.1129,73.1129,0,0,1,359.67,249.0366Z"/><path d="M371.3223,260.85a4.4987,4.4987,0,0,0-2.8769,5.6758,73.9386,73.9386,0,0,1,3.4814,19.3906,4.5008,4.5008,0,0,0,4.4912,4.2813c.0743,0,.1485-.002.2227-.0049a4.5014,4.5014,0,0,0,4.2764-4.7139,82.9251,82.9251,0,0,0-3.919-21.7519A4.4986,4.4986,0,0,0,371.3223,260.85Z"/><path d="M393.1817,209.1216a90.319,90.319,0,0,1,14.7617,13.4189,4.5,4.5,0,0,0,6.7559-5.9472,99.3608,99.3608,0,0,0-16.2344-14.7569,4.5,4.5,0,0,0-5.2832,7.2852Z"/><path d="M356.7286,192.55a114.4717,114.4717,0,0,1,19.0879,6.5674,4.5,4.5,0,1,0,3.6894-8.209,123.4514,123.4514,0,0,0-20.5918-7.0889,4.5,4.5,0,0,0-2.1855,8.7305Z"/><path d="M316.5909,188.9292c.03-.0029,3.06-.3145,8.0518-.3145,3.9365,0,7.9941.1885,12.06.5606.14.0127.2783.0185.4151.0185a4.5,4.5,0,0,0,.4052-8.9814c-4.3379-.3965-8.6709-.5977-12.88-.5977-5.5186,0-8.8633.3506-9.003.3653a4.5,4.5,0,0,0,.9512,8.9492Z"/><path d="M436.0362,254.4507a118.1578,118.1578,0,0,0-8.7344-19.9492,4.5,4.5,0,1,0-7.8632,4.3789,109.1262,109.1262,0,0,1,8.0625,18.4258,4.5,4.5,0,0,0,8.5351-2.8555Z"/><path d="M421.2276,435.2964a122.61,122.61,0,0,0-61.8486-19.333V383.0591h2.3027a59.62,59.62,0,0,0,59.5528-59.5528v-6.8027a1.5,1.5,0,0,0-1.5-1.5h-6.8018A59.6453,59.6453,0,0,0,354.879,361.526a59.6454,59.6454,0,0,0-58.0537-46.3224h-6.8018a1.5,1.5,0,0,0-1.5,1.5v6.8027a59.62,59.62,0,0,0,59.5527,59.5528h2.3028v32.9043a122.6167,122.6167,0,0,0-61.8506,19.334,44.14,44.14,0,0,1-47.6206-.001,122.6224,122.6224,0,0,0-61.8491-19.3318V383.0591h2.3022a59.6205,59.6205,0,0,0,59.5537-59.5528v-6.8027a1.5,1.5,0,0,0-1.5-1.5h-6.8027a59.6445,59.6445,0,0,0-58.0532,46.3222,59.6447,59.6447,0,0,0-58.0533-46.3222h-6.8022a1.5,1.5,0,0,0-1.5,1.5v6.8027a59.62,59.62,0,0,0,59.5532,59.5528h2.3023v32.9056A122.6231,122.6231,0,0,0,108.21,435.2964a4.5,4.5,0,0,0,4.8643,7.5723,114.0434,114.0434,0,0,1,122.9683-.001,53.1567,53.1567,0,0,0,57.351.001,114.0437,114.0437,0,0,1,122.9707,0,4.5,4.5,0,1,0,4.8633-7.5723ZM175.0548,382.9146h-.9922a4.4952,4.4952,0,0,1-3.6743-1.8956c-.1143-.1611-11.5777-16.1972-25.4068-26.19a4.5,4.5,0,1,1,5.2715-7.2949c10.6536,7.6982,19.7267,18.2952,24.3057,24.092,4.5789-5.7968,13.652-16.3938,24.3056-24.092a4.5,4.5,0,0,1,5.2715,7.2949c-13.8291,9.9932-25.2925,26.0293-25.4067,26.19A4.4954,4.4954,0,0,1,175.0548,382.9146Zm180.32,0h-.9922a4.493,4.493,0,0,1-3.6738-1.8956c-.1143-.1611-11.5782-16.1972-25.4073-26.19a4.5,4.5,0,1,1,5.2715-7.2949c10.6533,7.6982,19.7268,18.2952,24.3057,24.092,4.5788-5.7968,13.6523-16.3938,24.3056-24.092a4.5,4.5,0,1,1,5.2715,7.2949c-13.8291,9.9932-25.2929,26.0293-25.4072,26.19A4.493,4.493,0,0,1,355.3751,382.9146Z"/></g></svg>