<svg xmlns="http://www.w3.org/2000/svg" viewBox="0 0 499.16 448.18"><g data-name="Layer 2"><g data-name="Layer 1"><path fill="#f46534" d="M314.52,446.83h.24a16.27,16.27,0,0,0,14-7.92c3.77-6.33,9.07-15.21,13.08-21.92a66.54,66.54,0,0,0,8-20.37l2-9.6A64.71,64.71,0,0,0,353,368.24L352,357.61a116.77,116.77,0,0,0-5.38-26.36l-1.93-16.89c0-.12-.67-5.15-1.25-9.87a61.38,61.38,0,0,0-2.94-12.83,78,78,0,0,0-2.72-8.05l-.13-.31a1.1,1.1,0,0,1-.39-.41h0a45.65,45.65,0,0,0-15.86-17.33l0,0a17.62,17.62,0,0,0-9.63-1.82c-3.8.34-8.95.32-11.76-1.75l-5-3.67a22.69,22.69,0,0,0-17.69-4h0a1,1,0,0,1-.68-.1L260.23,245a.94.94,0,0,0-.15-.06l-4.35-1.58a25.72,25.72,0,0,0-8.69-1.52h0a14,14,0,0,1-6.23-1.45A32.61,32.61,0,0,0,228,236.88a34.93,34.93,0,0,0-9.74.59h0a1,1,0,0,1-.59,0l-1.6-.54a1,1,0,0,1,.33-2h1.41a.92.92,0,0,0,.29,0l10.2-3.1.14,0h0a21.47,21.47,0,0,1,11.74,1.47l1.73.73A38.55,38.55,0,0,0,257,237.07h.08l8.62.6a7.53,7.53,0,0,1,5.29,2.74l.07.09a7.58,7.58,0,0,0,8.28,2.4c1.68-.57,3.26-1.08,3.72-1.23a1,1,0,0,1,.29-.05l3.88-.09a13.28,13.28,0,0,1,10.38,4.63h0a1,1,0,0,0,.57.33l2.28.45a107.53,107.53,0,0,1,38.27,15.58l.94.62a1,1,0,0,0,1.52-1.14l-.6-1.4c-5.86-13.68-10.27-27.9-14.53-42.16a25.18,25.18,0,0,0-2.5-5.17A91.76,91.76,0,0,1,313,186.67c-.6-2.63-1.11-4.71-1.36-5.33l-6.42-16.15a99.34,99.34,0,0,0-8-15.86l-2.52-4.07a19.26,19.26,0,0,0-9.23-7.74h0a.86.86,0,0,0-.23-.06l-6.27-.9a1.06,1.06,0,0,1-.57-.28l-3.16-3.17a1,1,0,0,1,1.3-1.53h0a1,1,0,0,0,.4.18l9.54,1.86.16,0,7.1,2.64a1,1,0,0,0,1.35-.84h0a7.44,7.44,0,0,0-2.14-6l-3.62-3.62a.86.86,0,0,1-.21-.29l-5.37-11.69a.85.85,0,0,1-.09-.31l-.88-8.06a1,1,0,0,1,1.93-.49l2,5a1.17,1.17,0,0,0,.19.3l4,4.36a1.64,1.64,0,0,0,2.37,0h0a1,1,0,0,0,.22-1.08L286.1,94.94a5.75,5.75,0,0,1,2.09-6.87h0l.1-.08,2-1.82a15.42,15.42,0,0,1,10.24-3.9h0a1.24,1.24,0,0,0,.27,0l9.6-2.68a1,1,0,0,0,.71-.77l1.08-5.16.44,6.39a1,1,0,0,1-.44.9l-7.88,5.39a17.87,17.87,0,0,1-1.57,1l-4.33,2.4a10.7,10.7,0,0,0-4.74,13.38h0a.7.7,0,0,1,.06.19h0a45.61,45.61,0,0,0,9.09,19.67l1.45,1.82a29.43,29.43,0,0,1,3.3,5.17h0a10.29,10.29,0,0,0,15.8,3.29l1.72-1.44.11-.1,11.86-13.35a32.18,32.18,0,0,1,7.94-6.48l13.18-7.67a.91.91,0,0,0,.16-.11L364.16,99a.9.9,0,0,0,.25-.33l3.92-8.36a1,1,0,0,1,1.88.7l-2,7.31a1.12,1.12,0,0,1-.05.13l-2.75,6.42a1,1,0,0,1-.3.39l-11.91,9.58a1.12,1.12,0,0,1-.28.16l-2.81,1a1,1,0,0,0-.31,1.71l2.1,1.82a1,1,0,0,0,.49.23l15.49,2.58H368l15,.24h.06l11-.47a1,1,0,0,0,.47-.13l8.87-5.24a.9.9,0,0,0,.4-.44l4.42-9.29s0,0,0,0l6.17-11.26,3-5.26a24.58,24.58,0,0,1,6.69-7.52l7-5.22-6.66,6.67a24.5,24.5,0,0,0-4.68,6.52l-4.5,9.13-3.79,7.75a1,1,0,0,0,0,.73h0a2.39,2.39,0,0,0,2.63,1.68l7.15-1,7.6-1.41a1.14,1.14,0,0,0,.26-.09l3.68-1.81a37.65,37.65,0,0,0,12.8-10.26l3.51-4.37a1.14,1.14,0,0,1,.11-.11l3-2.73a1,1,0,0,1,1.53,1.29l-2.89,4.48a1.34,1.34,0,0,1-.11.14L443.66,102a18.35,18.35,0,0,1-4.28,3.42L430,110.79l-.14.07-2.73,1a35.2,35.2,0,0,1-15.44,2.26l-.68-.06a1,1,0,0,0-.85.36l-5,6a.76.76,0,0,1-.21.19l-8.56,5.77a1.09,1.09,0,0,1-.31.14l-10.86,2.8a1.24,1.24,0,0,1-.27,0l-12.54-.18a.68.68,0,0,1-.2,0l-16.92-3.56-.17,0-2-.08a20.5,20.5,0,0,0-18.25,9.76h0l-.06.08-2.73,3.58a35.61,35.61,0,0,1-8.38,8h0a14.73,14.73,0,0,0-5.73,7.6l-.83,2.55a14.78,14.78,0,0,0-.63,6.37h0a7,7,0,0,0,2.38,4.44l4.22,3.62.06.05h0a16.61,16.61,0,0,1,4.34,7.61l.85,3.34h0a17.33,17.33,0,0,0,10.05,11.6l4.45,1.87.16.08h0a17.44,17.44,0,0,1,7,9.23l1.36,4.22,2.33,6.44,0,.08,1.81,3.95a1,1,0,0,0,.48.49l5.82,2.77a1,1,0,0,0,1.4-.61h0a81.79,81.79,0,0,1,6.1-14.48h0c.73-1.35,23.39-35.54,23.61-35.84l9.9-13,4.76-6.46a34.16,34.16,0,0,1,6.52-6.69h0A14.06,14.06,0,0,1,426,143.48l.49.11,9.29,2.15.14,0,8.35.7a1,1,0,0,0,.43-.06l10.45-3.77a1,1,0,0,0,.5-.41l7.32-11.5a1.14,1.14,0,0,0,.1-.19l4.76-12.88a1.22,1.22,0,0,1,.17-.29l7.74-9.5a.76.76,0,0,0,.12-.19l6-12.4a.64.64,0,0,1,.1-.18l2.83-3.67a1,1,0,0,1,1.73,1l-.66,1.69-4.43,11a1,1,0,0,1-.19.29L478.9,108a38.9,38.9,0,0,0-7.45,12.41l-2.86,7.75a1,1,0,0,0,.09.88l0,.07a1,1,0,0,0,1.48.26l5.84-4.61a1.1,1.1,0,0,0,.21-.22l7.1-10.39a1,1,0,0,1,.52-.39l.42-.14a1,1,0,0,1,1,1.73L483.33,117a1,1,0,0,0-.24.31l-4.49,8.8a1,1,0,0,0,.1,1.07l.77,1a1,1,0,0,0,1.19.33l6-2.53a1.18,1.18,0,0,0,.19-.11l11.43-8-3,4.28a.27.27,0,0,1-.07.08L493,124.76a1,1,0,0,0,.91,1.66l4.14-.64a1,1,0,0,1,1.16,1v.92a1,1,0,0,1-1,1l-6.79.31a1.27,1.27,0,0,0-.26,0l-5.31,1.72a1.35,1.35,0,0,1-.29,0l-6.63.17a1,1,0,0,0-.45.11l-6.53,3.44a.9.9,0,0,1-.21.08l-3.59,1a1.07,1.07,0,0,0-.45.26l-6.34,6.35a.94.94,0,0,0-.21.28l-2.32,5a1,1,0,0,1-.35.41l-5.88,4a1,1,0,0,1-.42.17l-6.71,1h-8.2a1,1,0,0,0-1,1.22l1.84,8.76a1,1,0,0,0,.26.49l3.77,3.93a.93.93,0,0,0,.41.26l9.66,3.16,7.38,2.7-11-2.34-8-1.77a1.14,1.14,0,0,1-.26-.09h0a13,13,0,0,1-6.18-7.37l-2.42-7.39a1,1,0,0,0-1.15-.67l-6.46,1.23a1.12,1.12,0,0,0-.42.18l-7.22,5.38a1,1,0,0,0-.39.65l-.8,5.12a1,1,0,0,0,0,.46h0a6,6,0,0,1-2.93,7.16L401.53,180a5.2,5.2,0,0,0-2.75,4h0c0,.11-14.19,29.22-14.19,29.22a1,1,0,0,0-.07.24l-1.95,10.78a.76.76,0,0,0,0,.15l-.36,13v.05l.36,13a.76.76,0,0,0,0,.15L385,264.08a1,1,0,0,0,1.57.65L403.26,253l11-8.31a10.3,10.3,0,0,1,10.15-1.32h0a1,1,0,0,0,1.14-.27l5.95-6.77a.76.76,0,0,0,.11-.14l2.87-4.72a19.7,19.7,0,0,1,15.12-9.4h0a1,1,0,0,0,.56-.23l3.26-2.77a13.21,13.21,0,0,1,8.55-3.15h0a1,1,0,0,0,.36-.06l7.21-2.75a.83.83,0,0,0,.32-.2h0a82.33,82.33,0,0,1,14.58-10.72l.17-.1.1-.06,12.88-9.57a1,1,0,0,1,1.61.81v6.87a1,1,0,0,1-.37.79l-8.9,7.21-.1.08-7.41,4.58a.65.65,0,0,0-.18.15l-2.42,2.42a1,1,0,0,1-.47.26l-8.79,2.24a.92.92,0,0,0-.23.09l-5.13,2.74a.85.85,0,0,0-.28.22l-2.64,3a1,1,0,0,1-.28.22l-6.26,3.3-.12.07-11.36,8.17a.73.73,0,0,0-.18.17l-4,4.63a1.22,1.22,0,0,0-.17.29l-2.24,5.71a6.43,6.43,0,0,0,4.2,8.51h0a.47.47,0,0,0,.17,0l6.28.7h.22l8.14-.86a1.17,1.17,0,0,0,.4-.13l11-6.38,6.71-3.53a1.48,1.48,0,0,1,.27-.1l7.8-1.55a1,1,0,0,0,.3-.12l5.27-3a1,1,0,0,1,1.27,1.53l-3.54,4.13a1,1,0,0,1-.66.35l-7.69.83a1.08,1.08,0,0,0-.36.11l-12.68,6.69a1,1,0,0,0-.2.15l-3.05,2.76a1,1,0,0,0,0,1.5l4.49,4,.17.11,2.67,1.58a1,1,0,0,0,.65.13L481,262.39l5.42-.87a.86.86,0,0,1,.32,0l5.59,1a1,1,0,0,1,.17,1.94l-5.85,2.1-.14,0-8.12,1.59h-.18l-11.19.18a1.06,1.06,0,0,1-.46-.1l-8.05-3.94a1.06,1.06,0,0,1-.33-.26l-2.63-3.09a1,1,0,0,0-.74-.36l-6.47-.16a1.08,1.08,0,0,1-.19,0l-7.24-1.59h-.1l-7.51-.88a.83.83,0,0,1-.34-.1l-2.45-1.22a.92.92,0,0,0-.56-.1l-11.2,1.22h-.06l-2.73.48a1.07,1.07,0,0,0-.52.26l-8.72,5.79c-.56.37-1.11.78-1.66,1.22a28.48,28.48,0,0,0-10.33,23.95l1.11,18.46a73.91,73.91,0,0,0,.64,22.85l.16.81a77.57,77.57,0,0,1,1.16,18.94v.14a12.31,12.31,0,0,0,.46,4.18c1.32,4.65,4.45,15.59,4.45,15.59l.15.59a113,113,0,0,1,3.5,30.26l-.05,2.22v.11l1.07,12.08a1.55,1.55,0,0,0,0,.21l1.62,5.17a1,1,0,0,0,.63.65l6.57,2.3a1.51,1.51,0,0,1,.28.15l10.17,7.72a1.14,1.14,0,0,1,.24.25l5.18,8a1.18,1.18,0,0,0,.3.29L442.6,447S307.82,446.83,314.52,446.83Z"/><path fill="#f46534" d="M274.35,246.93c-1.7-2.62-3.31-5.3-4.9-8s-3.13-5.39-4.66-8.11l.48.41-5.07-1.72-5-1.77a1,1,0,0,1-.61-.64h0c-.72-2.39-1.46-4.8-2.24-7.17-.39-1.18-.78-2.37-1.22-3.51-.11-.28-.23-.56-.35-.83a4.79,4.79,0,0,0-.3-.59.3.3,0,0,0,.13.09l-.17-.13a2.79,2.79,0,0,1-.32-.28l-.33-.4c-.22-.26-.39-.52-.59-.78-1.5-2.07-2.85-4.19-4.2-6.33s-2.63-4.3-3.85-6.51c1.59,2,3.12,4,4.67,5.94s3.06,4,4.62,5.93c.2.23.4.48.59.69l.29.31s0,0,0,0v0a1.72,1.72,0,0,1,.32.23,4.5,4.5,0,0,1,.65,1q.22.45.42.9c.51,1.19,1,2.37,1.39,3.57q1.24,3.59,2.35,7.21l-.62-.65,5,1.83,5,1.88h0a.86.86,0,0,1,.45.41q2.12,4.17,4.13,8.4C271.81,241.22,273.12,244.06,274.35,246.93Z"/><path fill="#f46534" d="M249.19,212.28c.31-1.85.68-3.68,1.05-5.51l0,.35c-1.29-2-2.55-4-3.78-6-.63-1-1.22-2-1.83-3s-1.21-2-1.79-3a1,1,0,0,1,0-.87h0q1.69-3.75,3.48-7.44l.13,1c-1-1.24-2-2.52-3-3.78s-1.95-2.55-2.93-3.82l0,0a.63.63,0,0,1-.13-.41c0-.84.09-1.68.13-2.52l.15-2.52c.11-1.68.25-3.36.43-5,.18,1.68.31,3.36.43,5l.15,2.52c0,.84.1,1.68.13,2.52l-.16-.45c1.06,1.2,2.14,2.39,3.19,3.61s2.1,2.42,3.13,3.66a1,1,0,0,1,.13,1v0c-1.12,2.49-2.29,5-3.48,7.44l0-.89c.58,1,1.13,2.06,1.68,3.09s1.13,2.06,1.66,3.11c1.09,2.08,2.15,4.17,3.18,6.29l0,.05a.39.39,0,0,1,0,.3C250.52,208.78,249.89,210.54,249.19,212.28Z"/><path fill="#f46534" d="M247.21 187.22a22.78 22.78 0 011-4.41 39.73 39.73 0 011.59-4.14l0 0a.87.87 0 01.37-.41 36 36 0 013.26-1.7c.55-.27 1.13-.49 1.71-.72a15.69 15.69 0 011.8-.57 16.72 16.72 0 01-1.32 1.34c-.47.41-.93.83-1.42 1.2a36.26 36.26 0 01-3 2.14l.39-.45a38.58 38.58 0 01-1.9 4A23.77 23.77 0 01247.21 187.22zM237.68 234.3a44.81 44.81 0 01-4.51-3.82c-.72-.66-1.4-1.37-2.09-2.06s-1.35-1.41-2-2.13l.37.25q-1.38-.54-2.73-1.14c-.89-.42-1.8-.8-2.68-1.25a45.37 45.37 0 01-5.2-2.93 45.7 45.7 0 015.78 1.47c.95.28 1.87.63 2.81.95s1.84.68 2.76 1.05a1.05 1.05 0 01.37.25c.65.73 1.3 1.46 1.93 2.21s1.25 1.5 1.84 2.29A43.65 43.65 0 01237.68 234.3zM221.25 235l-7.39 3.72.16-.15-4 8.77a.59.59 0 01-.27.29l0 0-6.83 3.64.55-.7-2 8.09 0 .05a.63.63 0 01-.27.38l-5.91 3.61 0 0a.34.34 0 01-.26 0l-10-2.07 10.14 1.28-.28.06 5.6-4.06-.28.42 1.36-8.23a.92.92 0 01.54-.69l7.09-3.09-.32.31 4.66-8.43v0a.35.35 0 01.14-.13z"/><path fill="#f46534" d="M213.73,238.38c-2.47-.66-4.9-1.41-7.35-2.12-1.23-.35-2.44-.75-3.66-1.12s-2.43-.75-3.64-1.15a.71.71,0,0,1-.46-.9v0c1.09-3.4,2.25-6.78,3.4-10.16l0,.75c-1.61-3.19-3.25-6.37-4.82-9.58l.08.13c-1.67-2.32-3.33-4.66-5-7l.27.25c-1.75-1.06-3.48-2.16-5.21-3.25l0,0a.72.72,0,0,1-.32-.47c-.21-1.25-.41-2.5-.59-3.75s-.4-2.49-.56-3.75c-.34-2.51-.72-5-1-7.52.68,2.44,1.25,4.9,1.88,7.35.32,1.23.58,2.46.88,3.69s.57,2.46.84,3.7l-.35-.5c1.79,1,3.58,2,5.36,3a.85.85,0,0,1,.24.22l0,0q2.59,3.42,5.12,6.9l.08.12v0c1.63,3.18,3.19,6.4,4.78,9.61h0a.91.91,0,0,1,0,.74c-1.25,3.34-2.5,6.68-3.81,10l-.45-.94c1.19.45,2.38.91,3.56,1.39s2.37.93,3.55,1.42C209,236.4,211.4,237.34,213.73,238.38Z"/><path fill="#f46534" d="M199.33,233.3c-1.54-.43-3-1-4.53-1.46s-3-1.08-4.43-1.66a.75.75,0,0,1-.38-.34l0-.08c-.45-.93-.87-1.89-1.3-2.83s-.86-1.9-1.26-2.86c-.84-1.91-1.62-3.83-2.39-5.76l.22.32c-1.73-1.71-3.42-3.46-5.09-5.24s-3.28-3.61-4.8-5.53c2,1.43,3.88,3,5.75,4.54s3.68,3.19,5.47,4.84a.72.72,0,0,1,.21.29l0,0c.82,1.91,1.64,3.82,2.41,5.75q.59,1.44,1.14,2.91c.36,1,.75,1.94,1.09,2.92l-.41-.42c1.41.7,2.81,1.44,4.2,2.19S198,232.45,199.33,233.3Z"/><path fill="#f46534" d="M185.89 217.94a41.14 41.14 0 01-5.1 2.05c-1.72.59-3.46 1.1-5.22 1.55a1 1 0 01-.93-.24v0c-1.42-1.36-2.76-2.8-4.06-4.29-.65-.74-1.28-1.5-1.9-2.28s-1.21-1.58-1.74-2.43c.86.52 1.65 1.12 2.45 1.71s1.56 1.23 2.31 1.87c1.5 1.28 2.95 2.61 4.34 4l-.94-.26c1.76-.43 3.54-.8 5.33-1.09A41.21 41.21 0 01185.89 217.94zM278.54 135.38c-1.9-1.32-3.74-2.71-5.55-4.13s-3.6-2.86-5.36-4.34l.17.12c-1.54-.76-3.08-1.51-4.61-2.31a1 1 0 01-.44-.48v0c-.75-1.75-1.47-3.5-2.17-5.27s-1.38-3.55-2.06-5.33l.45.47c-1-.48-2-1-3-1.5s-2-1-3-1.54c-2-1-3.91-2.12-5.82-3.27 2.13.68 4.22 1.45 6.29 2.24 1 .4 2.08.8 3.1 1.22s2.07.82 3.09 1.27a.78.78 0 01.42.42l0 0c.77 1.74 1.54 3.48 2.26 5.24s1.46 3.51 2.16 5.28l-.45-.5c1.52.81 3 1.65 4.52 2.49l0 0 .13.1c1.68 1.57 3.34 3.16 5 4.79S277 133.66 278.54 135.38z"/><path fill="#f46534" d="M263.65,123.86c-1.47-.15-2.92-.4-4.37-.64s-2.87-.55-4.3-.86h.39c-.83.24-1.67.45-2.5.67s-1.67.43-2.51.63c-1.67.41-3.35.78-5,1.13h0a.92.92,0,0,1-.59-.06c-1-.46-2-1-3-1.45s-2-1-3-1.53-2-1.05-2.94-1.62-1.94-1.13-2.89-1.74c1.09.29,2.16.62,3.23,1s2.12.73,3.17,1.11,2.1.77,3.13,1.2,2.08.83,3.1,1.28l-.61-.06c1.68-.41,3.36-.8,5-1.14.84-.19,1.69-.36,2.54-.52s1.69-.33,2.54-.47h.09a.61.61,0,0,1,.3,0c1.39.45,2.78.93,4.15,1.43S262.3,123.25,263.65,123.86Z"/><path fill="#f46534" d="M255.19 121.58a18.47 18.47 0 01-2.06-1.87c-.63-.66-1.24-1.34-1.8-2l.32.28c-.8-.34-1.56-.74-2.33-1.14s-1.5-.84-2.23-1.31-1.45-.95-2.14-1.47a18.19 18.19 0 01-2-1.74 16.33 16.33 0 012.56.69 24.31 24.31 0 012.42 1c.8.34 1.57.72 2.33 1.12s1.52.82 2.24 1.29l.12.08a.76.76 0 01.2.2c.47.78.91 1.57 1.31 2.4A17.31 17.31 0 01255.19 121.58zM283.63 105.65c-2-2.58-3.87-5.2-5.72-7.86l.39.28c-1.55-.24-3.09-.54-4.64-.83-.78-.15-1.55-.3-2.33-.48l-.59-.15-.31-.09-.16 0-.09 0-.14-.06a1 1 0 01-.28-.16 1.74 1.74 0 01-.3-.36 1 1 0 01-.12-.23l-.08-.17c-.11-.23-.15-.4-.23-.61-.53-1.55-.92-3.06-1.3-4.59s-.76-3.06-1.09-4.6l.22.44-3.93-4.53.26.21q-4.2-2.42-8.34-4.91l0 0a.6.6 0 01-.29-.42c-.33-1.85-.68-3.69-1-5.55s-.6-3.72-.85-5.58c.58 1.79 1.14 3.59 1.66 5.39s1 3.62 1.53 5.43l-.34-.45q4.32 2.17 8.59 4.45a.87.87 0 01.23.19l0 0 4 4.47a.92.92 0 01.23.42v0l1 4.56c.37 1.51.73 3 1.14 4.49.05.16.11.38.16.5l0 .1s.05.13 0 0a.26.26 0 00-.14-.11c-.06 0 0 0 0 0h0l.06 0 .12 0 .25.08.54.16 2.25.6 4.55 1.16h.05a.55.55 0 01.34.27C280.57 99.93 282.14 102.76 283.63 105.65z"/><path fill="#f46534" d="M268.83 90.64c-3.06.76-6.15 1.38-9.23 2l.11 0-3.38 1.22a.78.78 0 01-.75-.14l-.05 0c-1.21-1-2.39-2.1-3.59-3.15s-2.36-2.14-3.54-3.21l.15.12c-1-.62-2-1.26-3.06-1.9l-3-1.92.5.14q-4.14-.08-8.28-.25h-.07a.5.5 0 01-.27-.08c-1.36-.86-2.74-1.7-4.09-2.58s-2.7-1.77-4-2.7q2.23.94 4.43 2c1.47.68 2.91 1.4 4.36 2.1l-.33-.09q4.14-.18 8.28-.25a.85.85 0 01.47.12l0 0 3.07 1.86c1 .62 2.06 1.24 3.07 1.88l0 0 .13.1c1.16 1.09 2.33 2.17 3.48 3.27s2.29 2.21 3.42 3.33l-.8-.18 3.46-.94.06 0h.05C262.54 91 265.67 90.75 268.83 90.64zM288.55 93.64c-1.83-2.83-3.58-5.71-5.28-8.62l0 0c-.6-1.25-1.18-2.51-1.76-3.78s-1.16-2.52-1.72-3.79a.87.87 0 01-.07-.31v0c0-1.81-.09-3.62-.09-5.43l0-5.43.1.44L276.92 61l-2.69-5.72v0a.43.43 0 01-.05-.16c-.68-3.62-1.34-7.25-1.9-10.89v0a.38.38 0 010-.21q1.4-2.37 2.87-4.68c-.7 1.69-1.42 3.37-2.18 5l0-.26c1 3.56 1.89 7.13 2.78 10.71l-.07-.2 2.9 5.62 2.82 5.65a.93.93 0 01.11.45l0 5.43c0 1.81-.06 3.62-.09 5.43l-.06-.34c.52 1.28 1 2.58 1.51 3.88s1 2.59 1.48 3.9l0 0C285.81 87.48 287.22 90.54 288.55 93.64z"/><path fill="#f46534" d="M275 54.86a24.18 24.18 0 01-2.18-1.24c-.7-.45-1.38-.91-2-1.4a47.42 47.42 0 01-3.82-3.1l0 0a.91.91 0 01-.29-.5c-.31-1.41-.58-2.84-.75-4.28a26.75 26.75 0 01-.26-4.4 28 28 0 011.72 4c.48 1.38.88 2.77 1.23 4.18l-.32-.52c1.25 1.06 2.43 2.2 3.57 3.38.57.59 1.12 1.21 1.65 1.84A23.42 23.42 0 01275 54.86zM285.17 87.3q-.42-5.22-.61-10.44t-.3-10.44l.06.31c-.55-1.38-1.08-2.76-1.6-4.16a.93.93 0 010-.75h0l2.32-4.88v.87l-2.31-4.88h0a1 1 0 01-.06-.64c1.2-4.43 2.43-8.85 3.76-13.24v.26c-.44-3.45-.82-6.9-1.1-10.36.85 3.37 1.61 6.76 2.32 10.15a.74.74 0 010 .21l0 .05c-.95 4.49-2 8.95-3.08 13.41l-.06-.66 2.37 4.84a1.06 1.06 0 010 .87l-2.37 4.85 0-.76c.51 1.4 1 2.8 1.49 4.2v0a.9.9 0 010 .28q-.07 5.22-.29 10.44C285.65 80.34 285.46 83.82 285.17 87.3zM311.75 78.49c0-2.38 0-4.74.13-7.1s.22-4.72.39-7.08a.69.69 0 01.08-.28l0-.05c.79-1.61 1.6-3.22 2.43-4.81s1.66-3.19 2.52-4.77l-.1.61c-.23-1.5-.45-3-.64-4.51s-.4-3-.57-4.53v-.06a.65.65 0 01.06-.34c.72-1.57 1.48-3.11 2.24-4.66s1.56-3.08 2.41-4.59c-.47 1.66-1 3.31-1.56 4.94s-1.11 3.27-1.71 4.88l.05-.4q.47 2.23.87 4.47c.29 1.5.55 3 .79 4.49a1 1 0 01-.09.6h0q-1.23 2.4-2.52 4.77c-.84 1.59-1.72 3.16-2.6 4.73l.09-.33c-.29 2.35-.61 4.69-1 7S312.25 76.17 311.75 78.49z"/><path fill="#f46534" d="M318.19 54.86a77.38 77.38 0 016.34-6c1.1-.92 2.22-1.84 3.35-2.74s2.25-1.8 3.39-2.68l-.31.42c.35-.93.76-1.84 1.13-2.76s.8-1.81 1.2-2.73.83-1.8 1.29-2.69S335.5 34 336 33.08c-.19 1-.4 2-.65 2.93s-.51 1.93-.77 2.89-.56 1.91-.87 2.85-.6 1.89-1 2.82a.93.93 0 01-.29.41h0c-1.12.92-2.23 1.84-3.39 2.71s-2.32 1.72-3.5 2.55A75.56 75.56 0 01318.19 54.86zM311.75 78.74c1.75-.78 3.54-1.47 5.32-2.17s3.58-1.33 5.38-2l-.38.26c.65-.88 1.33-1.73 2-2.59s1.33-1.72 2-2.56c1.36-1.69 2.73-3.39 4.13-5L330 65c.48-1.74 1-3.47 1.53-5.2s1.09-3.44 1.65-5.16l0-.06a.58.58 0 01.37-.38c2.64-.88 5.29-1.72 8-2.44-2.46 1.31-5 2.51-7.5 3.67l.4-.44c-.41 1.76-.79 3.53-1.24 5.28s-.86 3.5-1.34 5.25a1.09 1.09 0 01-.17.34l0 0c-1.35 1.7-2.75 3.36-4.15 5-.69.84-1.41 1.65-2.12 2.48s-1.41 1.65-2.14 2.45l-.05.06a.7.7 0 01-.34.2q-2.76.73-5.55 1.4C315.5 78 313.64 78.4 311.75 78.74zM369.3 90.17c2.67-2.16 5.39-4.24 8.13-6.28l-.25.43q.31-5.43.77-10.83s0-.09 0-.13v0c.72-2.72 1.49-5.42 2.26-8.13a1.1 1.1 0 01.24-.42h0c1.27-1.27 2.58-2.52 3.87-3.77s2.59-2.52 3.91-3.75l-.28.67q.08-5 .24-10.08v-.05a.64.64 0 01.19-.44c3.06-2.82 6.13-5.63 9.31-8.33-2.71 3.17-5.52 6.24-8.34 9.3l.2-.48c.11 3.36.2 6.72.25 10.08a.9.9 0 01-.26.63l0 0c-1.26 1.29-2.56 2.55-3.84 3.82s-2.56 2.54-3.86 3.78l.26-.43c-.8 2.7-1.59 5.39-2.43 8.08l0-.16q-.62 5.39-1.39 10.76v0a.56.56 0 01-.25.38C375.2 86.68 372.28 88.46 369.3 90.17z"/><path fill="#f46534" d="M378.85 73.58c-.41-3.48-.63-7-.78-10.44l0 .24c-.59-1.5-1.12-3-1.68-4.54s-1.05-3.05-1.58-4.57a1 1 0 010-.69v0q2.14-5 4.49-9.91l-.06.22c.28-1.8.59-3.61.92-5.41s.7-3.6 1.14-5.38c0 1.84-.06 3.67-.13 5.5s-.2 3.65-.34 5.48a.41.41 0 010 .16l0 .06c-1.3 3.39-2.69 6.74-4.14 10.07l0-.71c.49 1.54 1 3.07 1.47 4.61s.95 3.08 1.38 4.64l0 .07a.55.55 0 010 .18C379.48 66.62 379.26 70.1 378.85 73.58zM388.93 57.92c1.1-1.73 2.27-3.38 3.48-5l-.09.14c.25-.66.52-1.31.78-2s.52-1.31.81-2c.56-1.29 1.1-2.59 1.7-3.87a1 1 0 01.86-.55h0c1.62 0 3.24 0 4.86 0h0a1.1 1.1 0 01.27 0c1 .31 1.91.62 2.86 1s1.9.65 2.85 1l-.29 0c1.47 0 2.95 0 4.43 0s2.95.1 4.44.24c-1.46.32-2.92.54-4.38.77s-2.93.4-4.39.56a.66.66 0 01-.2 0l-.09 0c-1-.24-1.94-.53-2.92-.79s-1.93-.55-2.89-.84l.29 0c-1.62 0-3.24 0-4.86 0l.88-.56c-.6 1.27-1.27 2.52-1.9 3.78-.32.63-.67 1.24-1 1.87s-.66 1.24-1 1.85l-.05.09a.1.1 0 010 0C391.93 55.17 390.47 56.58 388.93 57.92z"/><path fill="#f46534" d="M377.77 84.38c2.45-.64 4.92-1.13 7.39-1.6l-.3.11c1.49-1.14 3-2.29 4.5-3.38s3.05-2.19 4.59-3.27a.94.94 0 01.74-.16h0c1.2.24 2.39.53 3.59.8s2.4.55 3.59.85l-.81.23q2.39-2.19 4.88-4.29c1.66-1.4 3.35-2.76 5.1-4.06-1.37 1.7-2.8 3.33-4.27 4.93s-2.95 3.17-4.47 4.71a.84.84 0 01-.76.24h-.05c-1.21-.22-2.42-.45-3.62-.7s-2.41-.48-3.6-.76l.77-.16c-1.56 1-3.1 2.11-4.69 3.12s-3.16 2-4.76 3l-.07 0a.48.48 0 01-.23.07C382.81 84.26 380.3 84.38 377.77 84.38zM452.06 90.12a34.88 34.88 0 011.35-5.53c.6-1.79 1.25-3.55 2-5.27l0 0a1 1 0 01.89-.56q2.1.06 4.2.27a30.74 30.74 0 014.2.72 30.71 30.71 0 01-4.2.71q-2.1.21-4.2.27l.91-.61c-.66 1.76-1.44 3.47-2.27 5.16A34.25 34.25 0 01452.06 90.12z"/><path fill="#a0c2ea" d="M19.68 81.67A135 135 0 0141.3 69 124 124 0 0165 60.75 181.72 181.72 0 0189.88 57c4.17-.38 8.33-.81 12.52-1.06s8.36-.41 12.54-.55L140 54.77l25.08-.52c2.09-.07 4.17-.19 6.23-.43s4.12-.59 6.17-1a109.74 109.74 0 0012.12-3.08 123.89 123.89 0 0023-9.85 124 124 0 01-22.86 10.32 108.14 108.14 0 01-12.15 3.23c-2 .41-4.12.79-6.2 1s-4.19.41-6.28.51c-8.38.34-16.73.41-25.09.66L115 56.42c-4.18.13-8.36.27-12.53.5s-8.32.65-12.48 1A194.39 194.39 0 0065.2 61.49 124 124 0 0041.5 69.4 133.63 133.63 0 0019.68 81.67zM327.87 22.26a109.25 109.25 0 0118.33-9.07A101.12 101.12 0 01366 7.92 147.3 147.3 0 01386.44 6.4c3.41-.07 6.82-.17 10.24-.11s6.83.17 10.24.31c13.63.6 27.26 1.36 40.86 2.1a58.48 58.48 0 0010.16-.38 88.22 88.22 0 0010-1.75A101.08 101.08 0 00487.29 0a101.32 101.32 0 01-19.2 7.05A90.41 90.41 0 01458 9a58.56 58.56 0 01-10.25.52c-6.84-.21-13.63-.67-20.45-1l-20.43-.91c-3.4-.15-6.81-.29-10.21-.35s-6.8 0-10.21.06a160.49 160.49 0 00-20.34 1.38 101.12 101.12 0 00-19.75 5A110.63 110.63 0 00327.87 22.26zM46.17 201.11c3.51 1 7.07 1.87 10.65 2.57s7.21 1.23 10.82 1.75a61.23 61.23 0 0010.87.82 21.58 21.58 0 005.32-.86 18.36 18.36 0 004.83-2.31 24.05 24.05 0 004.12-3.47 12.42 12.42 0 002.8-4.44 6.44 6.44 0 00.32-2.53 6.58 6.58 0 00-.77-2.43 10.3 10.3 0 00-3.69-3.64 11.62 11.62 0 00-5-1.65 6.68 6.68 0 00-2.53.24 4.27 4.27 0 00-2.08 1.31 8.38 8.38 0 00-1.75 4.78 16.07 16.07 0 00.37 5.27c.87 3.45 3.15 6.38 5.69 8.91a90.8 90.8 0 008.35 7 77.81 77.81 0 0018.8 10.95 75 75 0 0043 3.28 76.52 76.52 0 01-21.81 2 71.39 71.39 0 01-10.9-1.47 68.11 68.11 0 01-10.57-3.1A75.62 75.62 0 0194 213.16a89.9 89.9 0 01-8.47-7c-2.61-2.57-5-5.63-6-9.34a16.65 16.65 0 01-.38-5.62 9.31 9.31 0 012-5.32 5.24 5.24 0 012.51-1.57 7.67 7.67 0 012.89-.27 12.51 12.51 0 015.35 1.8 11.11 11.11 0 014 4 7.23 7.23 0 01.86 2.77 7.13 7.13 0 01-.37 2.87 13 13 0 01-3 4.75 24.7 24.7 0 01-4.3 3.54A18.93 18.93 0 0184 206.06a22.3 22.3 0 01-5.49.82 61 61 0 01-11-1c-3.61-.6-7.22-1.2-10.8-2S49.66 202.2 46.17 201.11z"/><path fill="#439916" d="M21.36 213.43s-18 2-21.36 22.68C0 236.11 26.64 226.27 21.36 213.43zM191.52 258.91s-5.7 11.16 4.44 16.92c0 0 2.46-12.44-1.59-18.82zM274.17 252.8s-7.29 13.91 2.85 20.51c0 0 5.15-14.49.66-19.09l-.71.07zM106.59 168.26s-13.5-3.18-22.23 7.35C84.36 175.61 108.12 177.55 106.59 168.26zM183.39 195.33s-7.11-14.48-17.91-7.91C165.48 187.42 177.37 202.24 183.39 195.33zM245.91 201.21s4.71-15.58 12.18-13.65c0 0-4 14.08-11.16 16.87l.27-1zM237.6 175s-8.43-4.28 0-20C237.6 154.93 246 171.22 237.6 175zM241.15 120.22s-8.65-1.4-13.57 11.74C227.58 132 242.43 128.66 241.15 120.22zM292.28 141.35s-10.61.62-13.85 16c0 0 16.65-3 16-12.57zM165.47 91s-12.48-12.36-26-1.08C139.43 89.9 156 103 165.47 91zM242.59 81.27s-14.23-3-20.71 9c0 0 19.32 2.85 23.7-7.11zM273.5 55.5s-10.4-9-21-3.71C252.48 51.79 262.9 66.59 273.5 55.5zM375.36 59.71S360.42 56.65 355.68 72C355.68 72 367.92 75.55 375.36 59.71zM382.74 129.34s-8.55 7-6.3 15.06c0 0 12.22-3.69 11.6-15.79l-2.83.73zM468.79 116.38s.35-7.17-8.11-8.88C460.68 107.5 460.25 118.77 468.79 116.38zM450.84 260.48s-9.36 3.47-6 11.63c0 0 9.34-3.15 10.73-11.17l-.74-.36z"/><path fill="#ffcd52" d="M491.13 200.6a80.9 80.9 0 01-14 11.2 80.9 80.9 0 0114-11.2zM306.48 136.51c.12 3.47.18 7 .26 10.42l.15 10.43-.06-.21 4.85 7.79 4.82 7.8a.52.52 0 01.07.21l1 13.45-.05-.17 5.22 9.8 2.57 4.92 2.54 4.94-2.81-4.79-2.78-4.81-5.49-9.65a.49.49 0 01-.05-.16h0L315.59 173l.07.22-4.77-7.83-4.76-7.84h0a.38.38 0 01-.05-.21l.15-10.43C306.3 143.46 306.36 140 306.48 136.51zM411.17 252.1c-2 2.07-4.05 4.12-6.13 6.12l-3.1 3-3.15 3a.44.44 0 01-.34.12h0l-1.88-.18.48-.28-1.13 2.63a.43.43 0 010 .07h0c-1.09 1.65-2.22 3.27-3.34 4.9s-2.21 3.27-3.36 4.89l-3.43 4.84c-1.17 1.59-2.32 3.2-3.52 4.77 1-1.7 2.07-3.37 3.1-5.06l3.19-5c1.07-1.66 2.18-3.3 3.26-4.95s2.17-3.31 3.29-4.94l-.05.08 1.18-2.61h0a.47.47 0 01.48-.27l1.87.21-.36.11 3.2-2.92 3.24-2.87Q407.85 254.88 411.17 252.1zM406.89 163.38c-.79.92-1.59 1.82-2.4 2.72s-1.61 1.82-2.43 2.71l-4.93 5.35.08-.11-2.31 4.78a.45.45 0 01-.23.22h0L390.15 181l.27-.28-2.2 5.58c-.74 1.86-1.46 3.73-2.23 5.58-1.52 3.7-3.05 7.39-4.68 11.05 1.25-3.8 2.6-7.57 4-11.33.66-1.89 1.39-3.75 2.09-5.62l2.12-5.62a.48.48 0 01.27-.27l4.54-1.9-.24.23 2.38-4.74h0a.23.23 0 01.07-.1l5.14-5.14c.86-.86 1.74-1.69 2.61-2.54S406 164.21 406.89 163.38zM457.26 220.27c-.91 1.1-1.84 2.18-2.76 3.26s-1.85 2.17-2.79 3.23a.29.29 0 01-.14.08h0c-2.81.7-5.6 1.45-8.42 2.12l.26-.18-4 6.24c-1.32 2.08-2.69 4.14-4.06 6.2h0a.4.4 0 01-.13.13l-4.72 3.08c-1.57 1-3.18 2-4.76 3s-3.17 2-4.77 3-3.2 2-4.82 2.93c1.52-1.11 3.06-2.18 4.59-3.27s3.09-2.14 4.63-3.22 3.08-2.15 4.65-3.18l4.68-3.14-.13.14c1.33-2.08 2.66-4.17 4-6.22l4.09-6.18h0a.48.48 0 01.26-.18c2.82-.64 5.66-1.22 8.5-1.83l-.15.08c1-1 2-2 3-3.06S456.25 221.28 457.26 220.27zM367.3 431.1c1.9-6.13 3.93-12.22 5.95-18.31l3.12-9.11c1-3 2.07-6.07 3.16-9.09h0l0-.07 4.89-8.33 0 .38c-.69-1.61-1.34-3.25-2-4.87l-2-4.87q-2-4.89-3.88-9.79 2.24 4.77 4.39 9.57l2.15 4.81c.71 1.6 1.44 3.2 2.13 4.81a.45.45 0 010 .39l-4.8 8.38 0-.08c-1 3-2.1 6.06-3.18 9.08L374 413.06C371.83 419.09 369.63 425.12 367.3 431.1zM325.5 260.48l8.57 4.54 8.55 4.57a.2.2 0 01.09.09h0l7.09 11 0 0L357 290.2a.45.45 0 01.08.35l-3.19 19.79v-.16c1.46 9.67 3 19.33 4.41 29s2.85 19.36 4.17 29.05c-1.71-9.63-3.32-19.28-4.9-28.93s-3.1-19.32-4.66-29v-.16l3.29-19.78.08.34-7.12-9.64 0 0L342.24 270l.1.1-8.43-4.78zM336.48 444.19c2.93-2.73 5.87-5.46 8.85-8.14s5.93-5.39 8.94-8l-.15.26 1.93-11.53 2-11.51c.66-3.84 1.42-7.66 2.13-11.5s1.48-7.65 2.26-11.47q-.8 5.79-1.69 11.57c-.61 3.85-1.17 7.71-1.83 11.55L357 416.92l-2 11.51a.45.45 0 01-.14.26c-3 2.63-6.09 5.21-9.14 7.81S339.58 441.65 336.48 444.19zM345.36 216.69c1.58 2.54 3.07 5.13 4.54 7.74s2.89 5.23 4.3 7.86 2.78 5.29 4.1 8l2 4c.63 1.36 1.28 2.7 1.88 4.08-.8-1.27-1.54-2.57-2.31-3.85l-2.23-3.89c-1.48-2.6-2.89-5.23-4.3-7.87s-2.78-5.29-4.1-8S346.58 219.42 345.36 216.69zM317.18 258.61c-4.23-.9-8.43-1.94-12.62-3s-8.36-2.21-12.52-3.38h0a.47.47 0 01-.31-.27c-.64-1.63-1.3-3.24-1.92-4.88l.41.24-5.34.58c-1.78.15-3.56.34-5.35.47 1.76-.36 3.52-.64 5.29-1l5.3-.85a.37.37 0 01.4.21v0c.72 1.6 1.39 3.21 2.08 4.81l-.31-.28c4.18 1.12 8.35 2.25 12.5 3.46S313.08 257.24 317.18 258.61zM273.57 249.79q-2-2.06-3.86-4.18c-1.26-1.42-2.54-2.82-3.77-4.26l.3.15c-4-.27-8-.62-11.94-1-2-.19-4-.44-6-.67s-4-.52-5.94-.82c2 0 4 .11 6 .23s4 .2 6 .36q6 .42 11.94 1h0a.49.49 0 01.29.16c1.2 1.47 2.35 3 3.52 4.47S272.45 248.26 273.57 249.79zM293.36 121.57a88.25 88.25 0 015.24 8.34 85.05 85.05 0 014.37 8.82 83.21 83.21 0 01-5.24-8.34A85.05 85.05 0 01293.36 121.57zM376.06 213.28q-.56 8.68-1.2 17.35L373.52 248a.33.33 0 01-.06.19h0L369.71 254v-.49l6.77 10.81a.54.54 0 01.07.32l-1.73 13.68c-.58 4.56-1.13 9.13-1.75 13.68l-1.82 13.67-1.93 13.65 1.44-13.71 1.54-13.7c.5-4.57 1.08-9.13 1.62-13.7l1.64-13.69.07.33L368.94 254a.44.44 0 010-.49l3.78-5.79-.07.19 1.64-17.31Q375.13 221.93 376.06 213.28zM331.2 202.93l2.78 8.38 2.71 8.39c.89 2.8 1.81 5.6 2.67 8.41l2.62 8.42-.09-.17 5.3 6.16 5.25 6.19a.43.43 0 01.11.28l.38 8 .32 8c.22 5.31.38 10.63.51 15.94q-.64-8-1.15-15.91l-.52-8-.45-8 .11.28-5.31-6.15L341.17 237a.56.56 0 01-.09-.17l-2.55-8.45c-.86-2.81-1.66-5.64-2.49-8.46l-2.46-8.47zM370.45 323c-.52 2-1.09 4-1.63 6s-1.14 3.95-1.71 5.93v-.14c.52 3.75.95 7.51 1.4 11.28s.88 7.52 1.27 11.29.8 7.53 1.13 11.31.68 7.54.95 11.32c-.57-3.74-1.11-7.49-1.59-11.25s-1-7.52-1.41-11.28-.89-7.52-1.28-11.29-.81-7.53-1.15-11.31h0a.3.3 0 010-.13c.65-1.95 1.28-3.91 2-5.85S369.75 324.91 370.45 323zM377.83 284.6q4.43 7.54 8.75 15.18a.37.37 0 010 .18h0c-.5 4.74-1 9.47-1.57 14.2l-1.64 14.2-1.75 14.19c-.56 4.73-1.21 9.45-1.83 14.17v-.09l1.43 7.82 1.38 7.82-1.73-7.76-1.67-7.76a.28.28 0 010-.09h0c.51-4.74 1-9.48 1.56-14.21l1.63-14.2 1.74-14.18c.57-4.73 1.19-9.45 1.82-14.18l0 .2Q381.87 292.38 377.83 284.6zM388.81 346.83c2 6.62 4 13.27 5.91 19.93s3.78 13.34 5.67 20a.48.48 0 01-.11.46h0c-1.84 2-3.71 4-5.56 5.95l.11-.44c1.24 5.13 2.54 10.25 3.72 15.4s2.39 10.29 3.5 15.46c-1.45-5.08-2.83-10.18-4.18-15.29s-2.65-10.22-4-15.34a.48.48 0 01.12-.44c1.84-2 3.68-4 5.54-6l-.11.46c-1.81-6.69-3.68-13.36-5.44-20.06S390.48 353.56 388.81 346.83zM380.58 403.57q2.18 2.85 4.25 5.79a.26.26 0 01.05.19v0c-.17 3.76-.44 7.51-.73 11.26s-.64 7.5-1.08 11.24v0a.3.3 0 01-.08.17c-.85.91-1.68 1.83-2.56 2.72s-1.72 1.8-2.61 2.68c.76-1 1.54-2 2.31-2.94s1.58-1.93 2.37-2.89l-.09.19c.17-3.77.46-7.52.75-11.27s.65-7.49 1.08-11.23l.06.2Q382.38 406.67 380.58 403.57z"/><path fill="#ffcd52" d="M390.17 394c.12 5.36.23 10.72.29 16.08s.15 10.72.15 16.08l-.18-.35 5.51 4.11 5.51 4.13c1.8 1.42 3.71 2.69 5.56 4s3.7 2.72 5.55 4.08l-.08 0 18.16 6-18.32-5.51a.09.09 0 01-.06 0h0c-1.91-1.27-3.86-2.5-5.74-3.81s-3.83-2.54-5.64-3.95l-5.49-4.17-5.48-4.17a.46.46 0 01-.17-.35c0-5.36.1-10.72.15-16.08S390 399.39 390.17 394zM418.2 153c1.05-1.11 2.14-2.19 3.21-3.28s2.17-2.15 3.26-3.22a.36.36 0 01.29-.1h0c3.26.51 6.5 1.12 9.74 1.73s6.48 1.26 9.71 1.94l-.26 0c3.24-1.48 6.48-3 9.78-4.32-3.1 1.76-6.26 3.41-9.42 5.05a.41.41 0 01-.24 0h0c-3.25-.55-6.49-1.15-9.73-1.77s-6.48-1.27-9.7-2l.32-.09c-1.15 1-2.29 2-3.46 3S419.39 152 418.2 153z"/><ellipse cx="260.15" cy="412.79" fill="none" stroke="#ff5061" stroke-linecap="round" stroke-linejoin="round" rx="19.68" ry="34.1"/><path fill="#ff5061" d="M277,427.79c2.8-6.46.69-10.42.69-15,0-9.63-3.22-20.53-9-27.37a52.83,52.83,0,0,0-2.45,15.13C266.3,410.18,271.29,421,277,427.79Z"/><ellipse cx="290.43" cy="400.62" fill="#fff" rx="19.68" ry="34.1"/><path fill="#ff5061" d="M242.11,413.86c0,3.81-1.54,6.85.57,12,9-7.21,15.83-19.32,15.83-31.78a55.47,55.47,0,0,0-1.9-13C247.56,388.22,242.11,401.4,242.11,413.86Z"/><ellipse cx="235.32" cy="392.11" fill="#fff" rx="19.68" ry="34.1"/><line x1="260.15" x2="260.15" y1="446.89" y2="395.76" fill="none" stroke="#ff5061" stroke-linecap="round" stroke-linejoin="round"/><line x1="260.15" x2="252.18" y1="415.78" y2="406.67" fill="none" stroke="#ff5061" stroke-linecap="round" stroke-linejoin="round"/><line x1="260.15" x2="248.67" y1="426.66" y2="413.53" fill="none" stroke="#ff5061" stroke-linecap="round" stroke-linejoin="round"/><line x1="260.15" x2="248.29" y1="437.88" y2="424.31" fill="none" stroke="#ff5061" stroke-linecap="round" stroke-linejoin="round"/><line x1="260.15" x2="269.82" y1="415.81" y2="404.75" fill="none" stroke="#ff5061" stroke-linecap="round" stroke-linejoin="round"/><line x1="260.15" x2="272.01" y1="426.69" y2="413.12" fill="none" stroke="#ff5061" stroke-linecap="round" stroke-linejoin="round"/><line x1="260.15" x2="272.01" y1="437.9" y2="424.34" fill="none" stroke="#ff5061" stroke-linecap="round" stroke-linejoin="round"/><ellipse cx="235.32" cy="392.11" fill="none" stroke="#439916" stroke-linecap="round" stroke-linejoin="round" rx="19.68" ry="34.1"/><polyline fill="none" stroke="#439916" stroke-linecap="round" stroke-linejoin="round" points="235.31 375.07 235.31 426.21 235.31 447.03"/><line x1="235.32" x2="225.67" y1="395.1" y2="384.07" fill="none" stroke="#439916" stroke-linecap="round" stroke-linejoin="round"/><line x1="235.32" x2="223.45" y1="405.98" y2="392.42" fill="none" stroke="#439916" stroke-linecap="round" stroke-linejoin="round"/><line x1="235.32" x2="223.45" y1="417.2" y2="403.63" fill="none" stroke="#439916" stroke-linecap="round" stroke-linejoin="round"/><line x1="235.32" x2="244.98" y1="395.13" y2="384.07" fill="none" stroke="#439916" stroke-linecap="round" stroke-linejoin="round"/><line x1="235.32" x2="247.18" y1="406" y2="392.44" fill="none" stroke="#439916" stroke-linecap="round" stroke-linejoin="round"/><line x1="235.32" x2="247.18" y1="417.22" y2="403.66" fill="none" stroke="#439916" stroke-linecap="round" stroke-linejoin="round"/><ellipse cx="290.43" cy="400.62" fill="none" stroke="#ffcd52" stroke-linecap="round" stroke-linejoin="round" rx="19.68" ry="34.1"/><polyline fill="none" stroke="#ffcd52" stroke-linecap="round" stroke-linejoin="round" points="290.43 383.58 290.43 434.72 290.43 447.03"/><line x1="290.43" x2="280.78" y1="403.61" y2="392.58" fill="none" stroke="#ffcd52" stroke-linecap="round" stroke-linejoin="round"/><line x1="290.43" x2="278.57" y1="414.49" y2="400.93" fill="none" stroke="#ffcd52" stroke-linecap="round" stroke-linejoin="round"/><line x1="290.43" x2="278.57" y1="425.7" y2="412.14" fill="none" stroke="#ffcd52" stroke-linecap="round" stroke-linejoin="round"/><line x1="290.43" x2="300.1" y1="403.63" y2="392.58" fill="none" stroke="#ffcd52" stroke-linecap="round" stroke-linejoin="round"/><line x1="290.43" x2="302.29" y1="414.51" y2="400.95" fill="none" stroke="#ffcd52" stroke-linecap="round" stroke-linejoin="round"/><line x1="290.43" x2="302.29" y1="425.72" y2="412.16" fill="none" stroke="#ffcd52" stroke-linecap="round" stroke-linejoin="round"/><line x1="84.61" x2="474.43" y1="447.03" y2="447.03" fill="none" stroke="#545454" stroke-linecap="round" stroke-linejoin="round"/></g></g></svg>